# xmcd
#
# Track frame offsets:
#	150
#	14921
#	30264
#	47091
#	62220
#	80716
#	97103
#	122103
#	140809
#	157050
#	172781
#	188448
#
# Disc length: 2688 seconds
#
# Revision: 0
# Processed by: cddbd v1.5.2PL0 Copyright (c) Steve Scherf et al.
# Submitted via: VUPlayer 2.49
#
DISCID=a40a7e0c
DTITLE=Richard Ray Farrell - I Sing The Blues Eclectic
DYEAR=2011
DGENRE=Blues Acoustic
TTITLE0=Ol' Man Blues
TTITLE1=Cherry On The Cream
TTITLE2=Bad As You Wanna Be
TTITLE3=Memphis Bound
TTITLE4=Starting Over Again
TTITLE5=Listenin' To The Fallin' Rain
TTITLE6=Leisure Man
TTITLE7=Steady Eatin' Woman
TTITLE8=Little Suzie
TTITLE9=Sweet Dreams (Of You)
TTITLE10=Skitchin'
TTITLE11=Ride That Freedom Train
EXTD=
EXTT0=
EXTT1=
EXTT2=
EXTT3=
EXTT4=
EXTT5=
EXTT6=
EXTT7=
EXTT8=
EXTT9=
EXTT10=
EXTT11=
PLAYORDER=
